<?xml version="1.0" encoding="UTF-8"?><svg id="Livello_3" xmlns="http://www.w3.org/2000/svg" viewBox="0 0 1080 3878.44"><path d="m453.26,3697.35c-35.65,0-70.68-8.96-103.12-26.57-30.69-16.66-57.61-40.33-80.01-70.36-23.58-31.61-41.43-69.39-53.05-112.31-12.41-45.84-17.55-97.12-15.28-152.41,2.45-59.51,13.52-123.92,32.92-191.46,20.68-72,63.46-122.14,130.77-153.29,58.6-27.11,129.95-37.36,198.96-47.26,61.33-8.8,124.74-17.91,179.41-38.69,60.82-23.12,102.43-57,130.94-106.62,35.39-61.6,39.59-115.3,12.49-159.6-35.31-57.71-115.63-89.58-176.78-106.15-72.49-19.64-161.59-29.13-238.33-25.37-56.32,2.75-118.22-15.92-174.32-52.59-56.94-37.21-103.15-90.15-130.12-149.06-26.02-56.83-33.87-118.68-22.67-178.86,12.75-68.56,49.28-134.91,108.57-197.18,59.73-62.74,127.97-102.27,208.63-120.87,69.92-16.12,140.27-14.38,202.34-12.84,63.01,1.56,122.54,3.03,170.04-14.19,51.11-18.53,84.96-57.88,106.51-123.83,14.92-45.63,21.07-85.88,18.29-119.62-2.51-30.47-12.46-56.5-29.56-77.38-77.22-94.24-294.69-80.39-451.54-61.78-39.47,4.68-78.19-.67-115.09-15.93-33.81-13.98-65.53-36-94.26-65.44-52.46-53.76-92.68-131.27-110.36-212.65-15.15-69.72-12.82-138.15,6.54-192.69,22.2-62.54,65.6-105.73,125.49-124.9,134.5-43.04,287.84-95.02,405.23-167.36,63.2-38.95,109.89-80.53,138.77-123.6,15.77-23.52,26.63-48.07,32.29-72.98,5.99-26.38,6.34-54.08,1.04-82.34-11.61-61.91-52.35-98.59-128.21-115.42-69.12-15.33-154.72-11.42-237.51-7.64-114.11,5.22-212.66,9.72-254.12-36.34-41.79-46.43-51.31-108.67-27.54-179.97,17.41-52.23,46.34-90.71,47.57-92.32,4.67-6.16,13.46-7.36,19.62-2.69,6.16,4.67,7.36,13.45,2.7,19.61h0c-.27.36-27.68,36.92-43.54,84.92-20.41,61.77-13.01,112.82,22.01,151.73,32.59,36.22,129.47,31.79,232.02,27.1,84.61-3.87,172.11-7.87,244.85,8.27,40.71,9.03,72.36,23.38,96.75,43.88,27.84,23.39,45.64,54.92,52.91,93.72,11.67,62.23-.98,121.47-37.59,176.07-31.13,46.42-80.7,90.78-147.34,131.84-120.08,73.99-275.31,126.65-411.39,170.19-26.5,8.48-49.25,22.38-67.6,41.31-17.27,17.81-30.74,40.12-40.03,66.28-17.64,49.69-19.62,112.68-5.56,177.37,16.59,76.39,54.15,148.94,103.04,199.04,37.97,38.92,101.07,83.2,186.01,73.12,117.17-13.9,205.73-17.1,278.7-10.08,44.48,4.28,83,12.64,114.48,24.85,35.55,13.78,63.58,32.98,83.32,57.07,20.78,25.35,32.82,56.58,35.81,92.82,3.09,37.48-3.5,81.42-19.58,130.62-12.76,39.05-29.49,69.6-51.15,93.4-19.91,21.89-43.61,37.6-72.44,48.06-52.46,19.02-114.55,17.48-180.28,15.86-124.09-3.07-264.73-6.55-390,125.02-103.95,109.19-132.62,231.74-80.72,345.08,24.8,54.17,67.42,102.92,119.99,137.28,51.2,33.46,107.17,50.53,157.63,48.07,80.7-3.95,170.74,5.64,247.02,26.31,66.06,17.9,153.22,52.99,193.34,118.56,15.81,25.84,23.09,54.41,21.64,84.93-1.53,32.19-12.88,66.93-33.73,103.23-31.47,54.78-78.99,93.66-145.27,118.85-57.57,21.88-122.55,31.21-185.38,40.23-70.1,10.06-136.3,19.57-191.18,44.96-60.32,27.91-97.06,71-115.62,135.61-18.78,65.4-29.5,127.6-31.86,184.88-2.16,52.43,2.67,100.86,14.33,143.94,10.69,39.5,27,74.11,48.47,102.88,19.96,26.75,43.82,47.78,70.93,62.49,39.63,21.52,83.68,28.22,127.38,19.37,45.22-9.16,86.94-34.51,120.63-73.31,5.07-5.84,13.91-6.46,19.75-1.39,5.84,5.07,6.46,13.91,1.39,19.75-37.79,43.51-84.89,72-136.22,82.4-14.4,2.92-28.84,4.36-43.17,4.36Z"/></svg>