<svg xmlns="http://www.w3.org/2000/svg" enable-background="new 0 0 66 66" viewBox="0 0 66 66" id="gps"><path d="M33.0051,1C19.9451,1,9.325,11.62,9.325,24.68c0,4.78,1.4001,9.29,3.9001,13.06l2.71-2.71
		c-1.8401-3.05-2.87-6.59-2.87-10.35c0-11,8.9401-19.94,19.9401-19.94c10.99,0,19.9299,8.94,19.9299,19.94
		c0,3.99-1.16,7.74-3.22,10.91l2.6899,2.69c2.73-3.88,4.27-8.59,4.27-13.6C56.675,11.62,46.0551,1,33.0051,1z M39.655,43.48
		l-6.6499,13.21L26.345,43.48c-0.4912-0.2385-3.2643-0.9692-6.5399-3.84l-2.65,2.65c1.88,1.69,4.0601,3.09,6.48,4.13L33.0051,65
		l9.3599-18.58c2.21-0.95,4.23-2.2,6-3.7l-2.6599-2.66C42.8576,42.388,39.8881,43.3692,39.655,43.48z"></path><path d="M46.025,24.1c0,7.1844-5.8486,13.02-13.0199,13.02c-7.1844,0-13.02-5.8356-13.02-13.02
		c0-7.1843,5.8356-13.0199,13.02-13.0199C40.1764,11.08,46.025,16.9157,46.025,24.1z"></path></svg>