<?xml version="1.0" encoding="UTF-8"?><svg id="Livello_1" xmlns="http://www.w3.org/2000/svg" viewBox="0 0 29 27"><path d="m28.82,5.42c-.19-.27-.49-.42-.82-.42H6V1c0-.55-.45-1-1-1H1C.45,0,0,.45,0,1s.45,1,1,1h3v21c0,.55.45,1,1,1h1c-.02.17-.02.33,0,.5,0,1.38,1.12,2.5,2.5,2.5s2.5-1.12,2.5-2.5c.02-.17.02-.33,0-.5h5.5c-.03.16-.05.33-.05.5,0,1.38,1.12,2.5,2.5,2.5,1.38,0,2.5-1.12,2.5-2.5,0-1.32-1.03-2.41-2.35-2.49H6v-1.18c.32.12.66.18,1,.18h14.59c1.27,0,2.41-.8,2.83-2l4.52-12.66c.11-.31.07-.65-.12-.92ZM9,24.5c0,.28-.22.5-.5.5s-.5-.22-.5-.5.22-.5.5-.5.5.22.5.5Zm9.9.5c-.28,0-.5-.22-.5-.5s.22-.5.5-.5.5.22.5.5-.22.5-.5.5Zm7.31-17c-.07,0-.14,0-.21,0H6v-1h20.58l-.37,1Zm-3.68,10.3c-.14.4-.52.66-.94.66H7c-.55,0-1-.45-1-1v-7.96h19.51l-1.07,3h-6.44c-.55,0-1,.45-1,1s.45,1,1,1h5.72l-1.19,3.3Z"/></svg>