<?xml version="1.0" encoding="UTF-8"?><svg id="Livello_1" xmlns="http://www.w3.org/2000/svg" viewBox="0 0 2402.17 396.47"><defs><style>.cls-1{fill:#f4b807;}.cls-2{fill:#01975c;}.cls-3{fill:#f1b500;}</style></defs><g><path class="cls-3" d="m2155.99,257.49c-2.06,0-3.84-.12-5.61.02-3.91.31-5.92,1.85-6.35,5.77-.38,3.51-.53,7.24.24,10.64,1.58,7.05,5.45,13.04,10.51,18.15,3.79,3.82,7.02,3.08,8.83-1.96,1.03-2.85,1.5-5.9,2.45-9.76,2.76,2.37,5.59,4.31,7.82,6.79,11.15,12.41,25.06,20.58,40.36,26.58,9.39,3.68,19.67,4.96,27.47,3.77-1.24-1.96-2.14-3.79-3.42-5.31-1.57-1.87-2.16-3.72-1.39-6.11.81-2.54,3-3.22,4.98-3.15,4.07.14,8.18.63,12.18,1.45,6.09,1.25,12.05,3.17,18.16,4.3,5.68,1.04,11.3.36,17.11-2.94-1.45-1.96-2.67-3.73-4.03-5.37-.59-.71-1.49-1.16-2.26-1.72-6.22-4.54-6.63-7.9-.97-13.24,7.72-7.28,17.3-8.84,27.43-7.78,6.44.68,12.24,3.06,17.16,7.45,1.48,1.32,6.52,3.8,5.68,5.69-8.24,28.91-39.25,55.57-79.89,64.04-38.17,7.96-102.72,3.28-133.9-30.29-26.46-28.49-32.37-65.36-28.59-103.28,10.13-65.39,47.32-92.58,112.74-97.09,71.98-2.69,117.92,21.61,133.16,77.76.8,2.44-4.55,8.39-6.13,10.25-8.25,9.72-19,12.07-30.96,10.27-10.1-1.52-18.35-6.71-25.25-14.1-3.39-3.63-6.62-7.41-10-11.05-23.8-25.58-73.45-27.29-98.55,10.8-8.64,13.11-11.01,27.43-9.28,42.71.19,1.68.29,3.37.41,5.05.03.41-.05.83-.1,1.64Z"/><path class="cls-3" d="m2265.88,266.31c-.27,2.35-.41,4.67-.82,6.95-.87,4.86-4.68,7.08-9.41,5.54-1.19-.39-2.36-.94-3.42-1.61-9.84-6.24-16.59-22.05-14.43-33.49.84-4.43,3.27-7.47,7.75-8.07,4.58-.62,9.25-.82,13.88-.77,1.36.02,3.32,1.27,3.83,2.46.37.85-.96,2.81-1.99,3.81-2.32,2.26-5.25,2.34-8.31,1.73-6.08-1.22-8.25.64-8.2,6.86.08,8.46,5.53,17.68,12.34,20.31.82-2.71,1.85-5.35,2.38-8.09.69-3.51,2.98-4.26,5.97-4.07,1.68.1,3.42.81,5.01.55,2.39-.4,4.79-1.19,6.98-2.24,1.24-.59,1.73-2.91,3.77-1.28,1.92,1.54,3.56,3.21,2.31,5.89-1.63,3.49-4.68,5.15-8.33,5.47-3.01.26-6.06.05-9.31.05Z"/><path class="cls-3" d="m2217.41,247.22c-.24,2.52-.39,5.72-3.61,7.05-3.18,1.31-5.79-.43-7.84-2.69-4.39-4.81-6.72-10.45-5.59-17.04.87-5.09,4.85-6.56,9.16-3.65,4.35,2.94,7.85,9.99,7.89,16.32Z"/><path class="cls-3" d="m2185.21,254.28c-.15,3.13-.59,5.88-3.47,6.96-2.71,1.01-4.95-.55-6.73-2.46-3.85-4.14-5.78-9.04-5.06-14.75.6-4.74,4.39-6.43,8.24-3.61,4.76,3.5,6.61,8.54,7.03,13.86Z"/></g><g><path class="cls-2" d="m345.01,207.05c0,97.02-50.91,145.52-152.71,145.52h-126.06V61.53h126.06c101.8,0,152.71,48.51,152.71,145.52Zm-185.28,75.72h30.88c39.2,0,58.8-21.01,58.8-63.03v-25.38c0-42.02-19.6-63.03-58.8-63.03h-30.88v151.44Z"/><path class="cls-2" d="m598.61,152.9c21.57,19.18,32.36,48.51,32.36,87.99v14.38h-167.52c0,16.08,3.6,28.2,10.79,36.38,7.19,8.18,18.54,12.27,34.05,12.27,14.1,0,24.46-2.96,31.09-8.88,6.62-5.92,9.94-13.81,9.94-23.69h81.64c0,27.07-10.3,48.23-30.88,63.45-20.59,15.23-50.63,22.84-90.1,22.84-41.46,0-73.61-9.66-96.45-28.98-22.84-19.31-34.26-48.57-34.26-87.78s11.14-67.4,33.42-87.14c22.28-19.74,53.02-29.61,92.22-29.61s72.13,9.59,93.7,28.77Zm-134.73,62.61h82.07c0-11.56-3.32-20.73-9.94-27.5-6.63-6.77-15.86-10.15-27.71-10.15-26.51,0-41.32,12.55-44.42,37.65Z"/><path class="cls-2" d="m674.54,352.57V45.87h84.18v306.69h-84.18Z"/><path class="cls-2" d="m815.41,102.98v-57.11h84.18v57.11h-84.18Zm0,249.58v-223.36h84.18v223.36h-84.18Z"/><path class="cls-2" d="m1012.53,352.57l-84.6-223.36h90.53l41.03,139.17h2.96l41.03-139.17h82.91l-85.45,223.36h-88.41Z"/><path class="cls-2" d="m1409.97,152.9c21.58,19.18,32.36,48.51,32.36,87.99v14.38h-167.52c0,16.08,3.6,28.2,10.79,36.38,7.19,8.18,18.54,12.27,34.05,12.27,14.1,0,24.46-2.96,31.09-8.88,6.62-5.92,9.94-13.81,9.94-23.69h81.65c0,27.07-10.3,48.23-30.88,63.45-20.59,15.23-50.62,22.84-90.1,22.84-41.46,0-73.61-9.66-96.45-28.98-22.84-19.31-34.27-48.57-34.27-87.78s11.14-67.4,33.42-87.14c22.27-19.74,53.02-29.61,92.22-29.61s72.13,9.59,93.7,28.77Zm-134.73,62.61h82.07c0-11.56-3.32-20.73-9.94-27.5-6.63-6.77-15.86-10.15-27.71-10.15-26.51,0-41.32,12.55-44.42,37.65Z"/><path class="cls-1" d="m1723,70.62c12.27,6.07,22,14.6,29.19,25.59,7.19,11,10.79,23.27,10.79,36.8,0,35.82-16.22,58.38-48.65,67.69v1.69c36.94,8.46,55.42,32.72,55.42,72.76,0,15.23-3.74,28.7-11.21,40.4-7.48,11.71-17.7,20.8-30.67,27.29-12.97,6.49-27.22,9.73-42.73,9.73h-196.28V61.53h193.75c14.66,0,28.13,3.03,40.4,9.1Zm-140.66,104.27h64.3c6.2,0,11.35-2.18,15.44-6.56,4.09-4.37,6.14-9.79,6.14-16.29v-4.23c0-6.2-2.12-11.49-6.35-15.86-4.23-4.37-9.31-6.56-15.23-6.56h-64.3v49.49Zm0,109.99h71.07c6.2,0,11.35-2.18,15.44-6.56,4.08-4.37,6.13-9.8,6.13-16.29v-4.23c0-6.48-2.05-11.91-6.13-16.29-4.09-4.37-9.24-6.56-15.44-6.56h-71.07v49.92Z"/><path class="cls-1" d="m2019.97,153.96c22.42,19.88,33.63,48.86,33.63,86.93s-11.21,67.05-33.63,86.93c-22.42,19.88-53.23,29.82-92.43,29.82s-69.94-9.87-92.22-29.61c-22.28-19.74-33.42-48.79-33.42-87.14s11.14-67.4,33.42-87.14c22.27-19.74,53.02-29.61,92.22-29.61s70.01,9.94,92.43,29.82Zm-133.89,75.09v24.11c0,31.59,13.81,47.38,41.46,47.38s41.88-15.79,41.88-47.38v-24.11c0-31.87-13.96-47.8-41.88-47.8s-41.46,15.94-41.46,47.8Z"/></g></svg>